<?xml version="1.0" standalone="no"?>
<!DOCTYPE svg PUBLIC "-//W3C//DTD SVG 20010904//EN"
 "http://www.w3.org/TR/2001/REC-SVG-20010904/DTD/svg10.dtd">
<svg version="1.0" xmlns="http://www.w3.org/2000/svg"
 width="585.000000pt" height="585.000000pt" viewBox="0 0 585.000000 585.000000"
 preserveAspectRatio="xMidYMid meet">
<metadata>
Created by potrace 1.11, written by Peter Selinger 2001-2013
</metadata>
<g transform="translate(0.000000,585.000000) scale(0.100000,-0.100000)"
fill="#000000" stroke="none">
<path d="M2780 5783 c-575 -40 -1090 -273 -1421 -642 -73 -82 -193 -242 -228
-302 l-23 -42 23 7 c254 80 541 117 736 97 269 -28 463 -98 643 -231 135 -101
280 -277 356 -432 l27 -57 41 59 c155 221 374 410 611 525 211 103 393 140
644 132 176 -6 283 -23 432 -72 45 -14 83 -24 86 -22 6 7 -71 133 -130 214
-69 94 -276 296 -374 366 -395 280 -940 434 -1423 400z"/>
<path d="M940 4843 c-181 -30 -395 -165 -544 -343 -202 -242 -319 -520 -347
-831 -40 -432 131 -788 431 -897 91 -33 222 -40 325 -17 66 14 161 47 173 60
2 2 -24 52 -57 112 -235 421 -272 844 -115 1323 55 166 139 339 238 488 l74
112 -76 -1 c-42 -1 -88 -4 -102 -6z"/>
<path d="M4717 4843 c-4 -6 23 -55 59 -109 84 -125 192 -347 238 -488 117
-355 122 -708 15 -1031 -30 -91 -116 -275 -163 -352 l-27 -42 28 -14 c15 -8
57 -24 93 -35 350 -115 669 58 789 428 55 167 66 427 26 615 -102 488 -441
910 -810 1010 -75 20 -240 32 -248 18z"/>
<path d="M1825 4120 c-160 -25 -298 -137 -356 -288 -33 -86 -37 -218 -9 -302
95 -283 409 -405 666 -259 113 64 204 199 223 329 42 307 -220 568 -524 520z
m253 -172 c18 -11 45 -36 59 -55 52 -68 40 -199 -23 -254 -96 -85 -253 -56
-312 56 -20 39 -20 131 0 170 53 101 182 140 276 83z"/>
<path d="M3820 4117 c-139 -31 -251 -121 -316 -252 -33 -68 -38 -88 -42 -167
-6 -111 15 -195 68 -276 104 -161 305 -244 489 -201 154 35 290 163 336 316
22 71 19 198 -5 277 -66 212 -312 353 -530 303z m301 -167 c106 -55 129 -208
45 -299 -40 -43 -83 -61 -147 -61 -101 0 -175 69 -186 174 -16 157 142 260
288 186z"/>
<path d="M2715 3272 c-113 -34 -181 -80 -221 -148 -36 -61 -31 -137 13 -192
42 -53 114 -99 197 -125 100 -31 262 -31 362 0 89 28 173 83 208 137 24 36 27
49 24 102 -3 49 -10 69 -32 99 -34 44 -98 87 -176 117 -78 30 -288 36 -375 10z
m365 -100 c20 -10 39 -29 44 -45 9 -24 6 -31 -17 -54 -23 -23 -37 -28 -95 -31
-105 -6 -169 37 -143 95 23 50 142 70 211 35z"/>
<path d="M3462 2622 c-10 -9 -27 -38 -36 -64 -23 -63 -83 -115 -143 -124 -81
-12 -150 2 -253 52 -92 43 -102 46 -163 42 -55 -3 -77 -11 -145 -51 -109 -63
-154 -74 -225 -53 -56 16 -114 67 -139 122 -14 29 -52 41 -74 23 -35 -29 23
-136 105 -189 60 -40 113 -53 191 -48 56 4 83 14 173 62 60 31 118 56 130 56
12 0 63 -20 112 -44 152 -74 272 -84 382 -31 62 31 113 92 139 168 18 53 15
71 -15 86 -15 8 -24 7 -39 -7z"/>
<path d="M1556 2062 c-54 -200 -170 -537 -286 -837 -24 -60 -82 -209 -130
-330 -72 -181 -300 -841 -300 -867 0 -5 254 -8 563 -8 l564 0 13 58 c58 264
208 626 331 802 29 41 100 122 158 181 154 153 286 234 426 260 175 32 405
-128 596 -416 122 -183 261 -491 345 -763 l38 -122 558 0 c307 0 558 2 558 5
0 10 -109 323 -153 440 -67 178 -215 540 -327 800 -133 310 -270 676 -310 833
l-11 44 -27 -18 c-287 -188 -557 -298 -877 -357 -104 -19 -154 -22 -380 -21
-279 0 -361 10 -582 69 -209 56 -452 167 -636 290 -53 36 -98 65 -100 65 -1 0
-15 -48 -31 -108z"/>
</g>
</svg>
